# Tiled2Unity generated file. Do not modify by hand.
# Wavefront file for 'StartingScreen_mesh_0007.obj'

# Vertices (Count = 696)
v -64 -32 0
v -96 -32 0
v -96 0 0
v -64 0 0
v -96 -32 0
v -128 -32 0
v -128 0 0
v -96 0 0
v -128 -32 0
v -160 -32 0
v -160 0 0
v -128 0 0
v -192 -32 0
v -224 -32 0
v -224 0 0
v -192 0 0
v -224 -32 0
v -256 -32 0
v -256 0 0
v -224 0 0
v -256 -32 0
v -288 -32 0
v -288 0 0
v -256 0 0
v -384 -32 0
v -416 -32 0
v -416 0 0
v -384 0 0
v -416 -32 0
v -448 -32 0
v -448 0 0
v -416 0 0
v -448 -32 0
v -480 -32 0
v -480 0 0
v -448 0 0
v -608 -32 0
v -640 -32 0
v -640 0 0
v -608 0 0
v -640 -32 0
v -672 -32 0
v -672 0 0
v -640 0 0
v -672 -32 0
v -704 -32 0
v -704 0 0
v -672 0 0
v -64 -64 0
v -96 -64 0
v -96 -32 0
v -64 -32 0
v -96 -64 0
v -128 -64 0
v -128 -32 0
v -96 -32 0
v -128 -64 0
v -160 -64 0
v -160 -32 0
v -128 -32 0
v -192 -64 0
v -224 -64 0
v -224 -32 0
v -192 -32 0
v -224 -64 0
v -256 -64 0
v -256 -32 0
v -224 -32 0
v -256 -64 0
v -288 -64 0
v -288 -32 0
v -256 -32 0
v -608 -64 0
v -640 -64 0
v -640 -32 0
v -608 -32 0
v -640 -64 0
v -672 -64 0
v -672 -32 0
v -640 -32 0
v -672 -64 0
v -704 -64 0
v -704 -32 0
v -672 -32 0
v -288 -96 0
v -320 -96 0
v -320 -64 0
v -288 -64 0
v -320 -96 0
v -352 -96 0
v -352 -64 0
v -320 -64 0
v -352 -96 0
v -384 -96 0
v -384 -64 0
v -352 -64 0
v -480 -96 0
v -512 -96 0
v -512 -64 0
v -480 -64 0
v -512 -96 0
v -544 -96 0
v -544 -64 0
v -512 -64 0
v -544 -96 0
v -576 -96 0
v -576 -64 0
v -544 -64 0
v -288 -128 0
v -320 -128 0
v -320 -96 0
v -288 -96 0
v -320 -128 0
v -352 -128 0
v -352 -96 0
v -320 -96 0
v -352 -128 0
v -384 -128 0
v -384 -96 0
v -352 -96 0
v -480 -128 0
v -512 -128 0
v -512 -96 0
v -480 -96 0
v -512 -128 0
v -544 -128 0
v -544 -96 0
v -512 -96 0
v -544 -128 0
v -576 -128 0
v -576 -96 0
v -544 -96 0
v -288 -160 0
v -320 -160 0
v -320 -128 0
v -288 -128 0
v -320 -160 0
v -352 -160 0
v -352 -128 0
v -320 -128 0
v -352 -160 0
v -384 -160 0
v -384 -128 0
v -352 -128 0
v -384 -160 0
v -416 -160 0
v -416 -128 0
v -384 -128 0
v -416 -160 0
v -448 -160 0
v -448 -128 0
v -416 -128 0
v -448 -160 0
v -480 -160 0
v -480 -128 0
v -448 -128 0
v -480 -160 0
v -512 -160 0
v -512 -128 0
v -480 -128 0
v -512 -160 0
v -544 -160 0
v -544 -128 0
v -512 -128 0
v -544 -160 0
v -576 -160 0
v -576 -128 0
v -544 -128 0
v -288 -192 0
v -320 -192 0
v -320 -160 0
v -288 -160 0
v -320 -192 0
v -352 -192 0
v -352 -160 0
v -320 -160 0
v -352 -192 0
v -384 -192 0
v -384 -160 0
v -352 -160 0
v -384 -192 0
v -416 -192 0
v -416 -160 0
v -384 -160 0
v -416 -192 0
v -448 -192 0
v -448 -160 0
v -416 -160 0
v -448 -192 0
v -480 -192 0
v -480 -160 0
v -448 -160 0
v -160 -224 0
v -192 -224 0
v -192 -192 0
v -160 -192 0
v -192 -224 0
v -224 -224 0
v -224 -192 0
v -192 -192 0
v -224 -224 0
v -256 -224 0
v -256 -192 0
v -224 -192 0
v -384 -224 0
v -416 -224 0
v -416 -192 0
v -384 -192 0
v -416 -224 0
v -448 -224 0
v -448 -192 0
v -416 -192 0
v -448 -224 0
v -480 -224 0
v -480 -192 0
v -448 -192 0
v 0 -256 0
v -32 -256 0
v -32 -224 0
v 0 -224 0
v -32 -256 0
v -64 -256 0
v -64 -224 0
v -32 -224 0
v -64 -256 0
v -96 -256 0
v -96 -224 0
v -64 -224 0
v -160 -256 0
v -192 -256 0
v -192 -224 0
v -160 -224 0
v -192 -256 0
v -224 -256 0
v -224 -224 0
v -192 -224 0
v -224 -256 0
v -256 -256 0
v -256 -224 0
v -224 -224 0
v 0 -288 0
v -32 -288 0
v -32 -256 0
v 0 -256 0
v -32 -288 0
v -64 -288 0
v -64 -256 0
v -32 -256 0
v -64 -288 0
v -96 -288 0
v -96 -256 0
v -64 -256 0
v -160 -288 0
v -192 -288 0
v -192 -256 0
v -160 -256 0
v -192 -288 0
v -224 -288 0
v -224 -256 0
v -192 -256 0
v -224 -288 0
v -256 -288 0
v -256 -256 0
v -224 -256 0
v -576 -288 0
v -608 -288 0
v -608 -256 0
v -576 -256 0
v -608 -288 0
v -640 -288 0
v -640 -256 0
v -608 -256 0
v -640 -288 0
v -672 -288 0
v -672 -256 0
v -640 -256 0
v -704 -288 0
v -736 -288 0
v -736 -256 0
v -704 -256 0
v -736 -288 0
v -768 -288 0
v -768 -256 0
v -736 -256 0
v -768 -288 0
v -800 -288 0
v -800 -256 0
v -768 -256 0
v 0 -320 0
v -32 -320 0
v -32 -288 0
v 0 -288 0
v -32 -320 0
v -64 -320 0
v -64 -288 0
v -32 -288 0
v -64 -320 0
v -96 -320 0
v -96 -288 0
v -64 -288 0
v -576 -320 0
v -608 -320 0
v -608 -288 0
v -576 -288 0
v -608 -320 0
v -640 -320 0
v -640 -288 0
v -608 -288 0
v -640 -320 0
v -672 -320 0
v -672 -288 0
v -640 -288 0
v -704 -320 0
v -736 -320 0
v -736 -288 0
v -704 -288 0
v -736 -320 0
v -768 -320 0
v -768 -288 0
v -736 -288 0
v -768 -320 0
v -800 -320 0
v -800 -288 0
v -768 -288 0
v -416 -352 0
v -448 -352 0
v -448 -320 0
v -416 -320 0
v -448 -352 0
v -480 -352 0
v -480 -320 0
v -448 -320 0
v -480 -352 0
v -512 -352 0
v -512 -320 0
v -480 -320 0
v -576 -352 0
v -608 -352 0
v -608 -320 0
v -576 -320 0
v -608 -352 0
v -640 -352 0
v -640 -320 0
v -608 -320 0
v -640 -352 0
v -672 -352 0
v -672 -320 0
v -640 -320 0
v -704 -352 0
v -736 -352 0
v -736 -320 0
v -704 -320 0
v -736 -352 0
v -768 -352 0
v -768 -320 0
v -736 -320 0
v -768 -352 0
v -800 -352 0
v -800 -320 0
v -768 -320 0
v -416 -384 0
v -448 -384 0
v -448 -352 0
v -416 -352 0
v -448 -384 0
v -480 -384 0
v -480 -352 0
v -448 -352 0
v -480 -384 0
v -512 -384 0
v -512 -352 0
v -480 -352 0
v -576 -384 0
v -608 -384 0
v -608 -352 0
v -576 -352 0
v -608 -384 0
v -640 -384 0
v -640 -352 0
v -608 -352 0
v -640 -384 0
v -672 -384 0
v -672 -352 0
v -640 -352 0
v -704 -384 0
v -736 -384 0
v -736 -352 0
v -704 -352 0
v -736 -384 0
v -768 -384 0
v -768 -352 0
v -736 -352 0
v -768 -384 0
v -800 -384 0
v -800 -352 0
v -768 -352 0
v -416 -416 0
v -448 -416 0
v -448 -384 0
v -416 -384 0
v -448 -416 0
v -480 -416 0
v -480 -384 0
v -448 -384 0
v -480 -416 0
v -512 -416 0
v -512 -384 0
v -480 -384 0
v -256 -448 0
v -288 -448 0
v -288 -416 0
v -256 -416 0
v -288 -448 0
v -320 -448 0
v -320 -416 0
v -288 -416 0
v -320 -448 0
v -352 -448 0
v -352 -416 0
v -320 -416 0
v -416 -448 0
v -448 -448 0
v -448 -416 0
v -416 -416 0
v -448 -448 0
v -480 -448 0
v -480 -416 0
v -448 -416 0
v -480 -448 0
v -512 -448 0
v -512 -416 0
v -480 -416 0
v -256 -480 0
v -288 -480 0
v -288 -448 0
v -256 -448 0
v -288 -480 0
v -320 -480 0
v -320 -448 0
v -288 -448 0
v -320 -480 0
v -352 -480 0
v -352 -448 0
v -320 -448 0
v -256 -512 0
v -288 -512 0
v -288 -480 0
v -256 -480 0
v -288 -512 0
v -320 -512 0
v -320 -480 0
v -288 -480 0
v -320 -512 0
v -352 -512 0
v -352 -480 0
v -320 -480 0
v -32 -576 0
v -64 -576 0
v -64 -544 0
v -32 -544 0
v -64 -576 0
v -96 -576 0
v -96 -544 0
v -64 -544 0
v -96 -576 0
v -128 -576 0
v -128 -544 0
v -96 -544 0
v -576 -576 0
v -608 -576 0
v -608 -544 0
v -576 -544 0
v -608 -576 0
v -640 -576 0
v -640 -544 0
v -608 -544 0
v -640 -576 0
v -672 -576 0
v -672 -544 0
v -640 -544 0
v -32 -608 0
v -64 -608 0
v -64 -576 0
v -32 -576 0
v -64 -608 0
v -96 -608 0
v -96 -576 0
v -64 -576 0
v -96 -608 0
v -128 -608 0
v -128 -576 0
v -96 -576 0
v -576 -608 0
v -608 -608 0
v -608 -576 0
v -576 -576 0
v -608 -608 0
v -640 -608 0
v -640 -576 0
v -608 -576 0
v -640 -608 0
v -672 -608 0
v -672 -576 0
v -640 -576 0
v -32 -640 0
v -64 -640 0
v -64 -608 0
v -32 -608 0
v -64 -640 0
v -96 -640 0
v -96 -608 0
v -64 -608 0
v -96 -640 0
v -128 -640 0
v -128 -608 0
v -96 -608 0
v -160 -640 0
v -192 -640 0
v -192 -608 0
v -160 -608 0
v -192 -640 0
v -224 -640 0
v -224 -608 0
v -192 -608 0
v -224 -640 0
v -256 -640 0
v -256 -608 0
v -224 -608 0
v -288 -640 0
v -320 -640 0
v -320 -608 0
v -288 -608 0
v -320 -640 0
v -352 -640 0
v -352 -608 0
v -320 -608 0
v -352 -640 0
v -384 -640 0
v -384 -608 0
v -352 -608 0
v -416 -640 0
v -448 -640 0
v -448 -608 0
v -416 -608 0
v -448 -640 0
v -480 -640 0
v -480 -608 0
v -448 -608 0
v -480 -640 0
v -512 -640 0
v -512 -608 0
v -480 -608 0
v -576 -640 0
v -608 -640 0
v -608 -608 0
v -576 -608 0
v -608 -640 0
v -640 -640 0
v -640 -608 0
v -608 -608 0
v -640 -640 0
v -672 -640 0
v -672 -608 0
v -640 -608 0
v -160 -672 0
v -192 -672 0
v -192 -640 0
v -160 -640 0
v -192 -672 0
v -224 -672 0
v -224 -640 0
v -192 -640 0
v -224 -672 0
v -256 -672 0
v -256 -640 0
v -224 -640 0
v -288 -672 0
v -320 -672 0
v -320 -640 0
v -288 -640 0
v -320 -672 0
v -352 -672 0
v -352 -640 0
v -320 -640 0
v -352 -672 0
v -384 -672 0
v -384 -640 0
v -352 -640 0
v -416 -672 0
v -448 -672 0
v -448 -640 0
v -416 -640 0
v -448 -672 0
v -480 -672 0
v -480 -640 0
v -448 -640 0
v -480 -672 0
v -512 -672 0
v -512 -640 0
v -480 -640 0
v -160 -704 0
v -192 -704 0
v -192 -672 0
v -160 -672 0
v -192 -704 0
v -224 -704 0
v -224 -672 0
v -192 -672 0
v -224 -704 0
v -256 -704 0
v -256 -672 0
v -224 -672 0
v -288 -704 0
v -320 -704 0
v -320 -672 0
v -288 -672 0
v -320 -704 0
v -352 -704 0
v -352 -672 0
v -320 -672 0
v -352 -704 0
v -384 -704 0
v -384 -672 0
v -352 -672 0
v -416 -704 0
v -448 -704 0
v -448 -672 0
v -416 -672 0
v -448 -704 0
v -480 -704 0
v -480 -672 0
v -448 -672 0
v -480 -704 0
v -512 -704 0
v -512 -672 0
v -480 -672 0
v -704 -704 0
v -736 -704 0
v -736 -672 0
v -704 -672 0
v -736 -704 0
v -768 -704 0
v -768 -672 0
v -736 -672 0
v -768 -704 0
v -800 -704 0
v -800 -672 0
v -768 -672 0
v -160 -736 0
v -192 -736 0
v -192 -704 0
v -160 -704 0
v -192 -736 0
v -224 -736 0
v -224 -704 0
v -192 -704 0
v -224 -736 0
v -256 -736 0
v -256 -704 0
v -224 -704 0
v -416 -736 0
v -448 -736 0
v -448 -704 0
v -416 -704 0
v -448 -736 0
v -480 -736 0
v -480 -704 0
v -448 -704 0
v -480 -736 0
v -512 -736 0
v -512 -704 0
v -480 -704 0
v -704 -736 0
v -736 -736 0
v -736 -704 0
v -704 -704 0
v -736 -736 0
v -768 -736 0
v -768 -704 0
v -736 -704 0
v -768 -736 0
v -800 -736 0
v -800 -704 0
v -768 -704 0
v -704 -768 0
v -736 -768 0
v -736 -736 0
v -704 -736 0
v -736 -768 0
v -768 -768 0
v -768 -736 0
v -736 -736 0
v -768 -768 0
v -800 -768 0
v -800 -736 0
v -768 -736 0

# Texture cooridinates (Count = 44)
vt 0 0.7142857
vt 0.1666667 0.7142857
vt 0.1666667 0.8571429
vt 0 0.8571429
vt 0.3333333 0.7142857
vt 0.3333333 0.8571429
vt 0.5 0.7142857
vt 0.5 0.8571429
vt 0.5 0.1428571
vt 0.6666667 0.1428571
vt 0.6666667 0.2857143
vt 0.5 0.2857143
vt 0.8333333 0.1428571
vt 0.8333333 0.2857143
vt 1 0.1428571
vt 1 0.2857143
vt 0.5 0
vt 0.6666667 0
vt 0.8333333 0
vt 1 0
vt 0 0.2857143
vt 0.1666667 0.2857143
vt 0.1666667 0.4285714
vt 0 0.4285714
vt 0.3333333 0.2857143
vt 0.3333333 0.4285714
vt 0.5 0.4285714
vt 0 0.5714285
vt 0.1666667 0.5714285
vt 0.3333333 0.5714285
vt 0.5 0.5714285
vt 0 0.1428571
vt 0.1666667 0.1428571
vt 0.3333333 0.1428571
vt 0.6666667 0.4285714
vt 0.6666667 0.5714285
vt 0.8333333 0.4285714
vt 0.8333333 0.5714285
vt 1 0.4285714
vt 1 0.5714285
vt 0.1666667 1
vt 0 1
vt 0.3333333 1
vt 0.5 1

# Normal
vn 0 0 -1

# Mesh description
g StartingScreen_mesh_0007

# Faces
f 1/1/1 2/2/1 3/3/1 4/4/1
f 5/2/1 6/5/1 7/6/1 8/3/1
f 9/5/1 10/7/1 11/8/1 12/6/1
f 13/9/1 14/10/1 15/11/1 16/12/1
f 17/10/1 18/13/1 19/14/1 20/11/1
f 21/13/1 22/15/1 23/16/1 24/14/1
f 25/17/1 26/18/1 27/10/1 28/9/1
f 29/18/1 30/19/1 31/13/1 32/10/1
f 33/19/1 34/20/1 35/15/1 36/13/1
f 37/21/1 38/22/1 39/23/1 40/24/1
f 41/22/1 42/25/1 43/26/1 44/23/1
f 45/25/1 46/12/1 47/27/1 48/26/1
f 49/28/1 50/29/1 51/2/1 52/1/1
f 53/29/1 54/30/1 55/5/1 56/2/1
f 57/30/1 58/31/1 59/7/1 60/5/1
f 61/17/1 62/18/1 63/10/1 64/9/1
f 65/18/1 66/19/1 67/13/1 68/10/1
f 69/19/1 70/20/1 71/15/1 72/13/1
f 73/32/1 74/33/1 75/22/1 76/21/1
f 77/33/1 78/34/1 79/25/1 80/22/1
f 81/34/1 82/9/1 83/12/1 84/25/1
f 85/27/1 86/35/1 87/36/1 88/31/1
f 89/35/1 90/37/1 91/38/1 92/36/1
f 93/37/1 94/39/1 95/40/1 96/38/1
f 97/4/1 98/3/1 99/41/1 100/42/1
f 101/3/1 102/6/1 103/43/1 104/41/1
f 105/6/1 106/8/1 107/44/1 108/43/1
f 109/12/1 110/11/1 111/35/1 112/27/1
f 113/11/1 114/14/1 115/37/1 116/35/1
f 117/14/1 118/16/1 119/39/1 120/37/1
f 121/1/1 122/2/1 123/3/1 124/4/1
f 125/2/1 126/5/1 127/6/1 128/3/1
f 129/5/1 130/7/1 131/8/1 132/6/1
f 133/9/1 134/10/1 135/11/1 136/12/1
f 137/10/1 138/13/1 139/14/1 140/11/1
f 141/13/1 142/15/1 143/16/1 144/14/1
f 145/24/1 146/23/1 147/29/1 148/28/1
f 149/23/1 150/26/1 151/30/1 152/29/1
f 153/26/1 154/27/1 155/31/1 156/30/1
f 157/28/1 158/29/1 159/2/1 160/1/1
f 161/29/1 162/30/1 163/5/1 164/2/1
f 165/30/1 166/31/1 167/7/1 168/5/1
f 169/17/1 170/18/1 171/10/1 172/9/1
f 173/18/1 174/19/1 175/13/1 176/10/1
f 177/19/1 178/20/1 179/15/1 180/13/1
f 181/21/1 182/22/1 183/23/1 184/24/1
f 185/22/1 186/25/1 187/26/1 188/23/1
f 189/25/1 190/12/1 191/27/1 192/26/1
f 193/4/1 194/3/1 195/41/1 196/42/1
f 197/3/1 198/6/1 199/43/1 200/41/1
f 201/6/1 202/8/1 203/44/1 204/43/1
f 205/32/1 206/33/1 207/22/1 208/21/1
f 209/33/1 210/34/1 211/25/1 212/22/1
f 213/34/1 214/9/1 215/12/1 216/25/1
f 217/4/1 218/3/1 219/41/1 220/42/1
f 221/3/1 222/6/1 223/43/1 224/41/1
f 225/6/1 226/8/1 227/44/1 228/43/1
f 229/1/1 230/2/1 231/3/1 232/4/1
f 233/2/1 234/5/1 235/6/1 236/3/1
f 237/5/1 238/7/1 239/8/1 240/6/1
f 241/1/1 242/2/1 243/3/1 244/4/1
f 245/2/1 246/5/1 247/6/1 248/3/1
f 249/5/1 250/7/1 251/8/1 252/6/1
f 253/28/1 254/29/1 255/2/1 256/1/1
f 257/29/1 258/30/1 259/5/1 260/2/1
f 261/30/1 262/31/1 263/7/1 264/5/1
f 265/27/1 266/35/1 267/36/1 268/31/1
f 269/35/1 270/37/1 271/38/1 272/36/1
f 273/37/1 274/39/1 275/40/1 276/38/1
f 277/27/1 278/35/1 279/36/1 280/31/1
f 281/35/1 282/37/1 283/38/1 284/36/1
f 285/37/1 286/39/1 287/40/1 288/38/1
f 289/28/1 290/29/1 291/2/1 292/1/1
f 293/29/1 294/30/1 295/5/1 296/2/1
f 297/30/1 298/31/1 299/7/1 300/5/1
f 301/12/1 302/11/1 303/35/1 304/27/1
f 305/11/1 306/14/1 307/37/1 308/35/1
f 309/14/1 310/16/1 311/39/1 312/37/1
f 313/12/1 314/11/1 315/35/1 316/27/1
f 317/11/1 318/14/1 319/37/1 320/35/1
f 321/14/1 322/16/1 323/39/1 324/37/1
f 325/27/1 326/35/1 327/36/1 328/31/1
f 329/35/1 330/37/1 331/38/1 332/36/1
f 333/37/1 334/39/1 335/40/1 336/38/1
f 337/9/1 338/10/1 339/11/1 340/12/1
f 341/10/1 342/13/1 343/14/1 344/11/1
f 345/13/1 346/15/1 347/16/1 348/14/1
f 349/9/1 350/10/1 351/11/1 352/12/1
f 353/10/1 354/13/1 355/14/1 356/11/1
f 357/13/1 358/15/1 359/16/1 360/14/1
f 361/12/1 362/11/1 363/35/1 364/27/1
f 365/11/1 366/14/1 367/37/1 368/35/1
f 369/14/1 370/16/1 371/39/1 372/37/1
f 373/17/1 374/18/1 375/10/1 376/9/1
f 377/18/1 378/19/1 379/13/1 380/10/1
f 381/19/1 382/20/1 383/15/1 384/13/1
f 385/17/1 386/18/1 387/10/1 388/9/1
f 389/18/1 390/19/1 391/13/1 392/10/1
f 393/19/1 394/20/1 395/15/1 396/13/1
f 397/9/1 398/10/1 399/11/1 400/12/1
f 401/10/1 402/13/1 403/14/1 404/11/1
f 405/13/1 406/15/1 407/16/1 408/14/1
f 409/4/1 410/3/1 411/41/1 412/42/1
f 413/3/1 414/6/1 415/43/1 416/41/1
f 417/6/1 418/8/1 419/44/1 420/43/1
f 421/17/1 422/18/1 423/10/1 424/9/1
f 425/18/1 426/19/1 427/13/1 428/10/1
f 429/19/1 430/20/1 431/15/1 432/13/1
f 433/1/1 434/2/1 435/3/1 436/4/1
f 437/2/1 438/5/1 439/6/1 440/3/1
f 441/5/1 442/7/1 443/8/1 444/6/1
f 445/28/1 446/29/1 447/2/1 448/1/1
f 449/29/1 450/30/1 451/5/1 452/2/1
f 453/30/1 454/31/1 455/7/1 456/5/1
f 457/4/1 458/3/1 459/41/1 460/42/1
f 461/3/1 462/6/1 463/43/1 464/41/1
f 465/6/1 466/8/1 467/44/1 468/43/1
f 469/4/1 470/3/1 471/41/1 472/42/1
f 473/3/1 474/6/1 475/43/1 476/41/1
f 477/6/1 478/8/1 479/44/1 480/43/1
f 481/1/1 482/2/1 483/3/1 484/4/1
f 485/2/1 486/5/1 487/6/1 488/3/1
f 489/5/1 490/7/1 491/8/1 492/6/1
f 493/1/1 494/2/1 495/3/1 496/4/1
f 497/2/1 498/5/1 499/6/1 500/3/1
f 501/5/1 502/7/1 503/8/1 504/6/1
f 505/28/1 506/29/1 507/2/1 508/1/1
f 509/29/1 510/30/1 511/5/1 512/2/1
f 513/30/1 514/31/1 515/7/1 516/5/1
f 517/27/1 518/35/1 519/36/1 520/31/1
f 521/35/1 522/37/1 523/38/1 524/36/1
f 525/37/1 526/39/1 527/40/1 528/38/1
f 529/4/1 530/3/1 531/41/1 532/42/1
f 533/3/1 534/6/1 535/43/1 536/41/1
f 537/6/1 538/8/1 539/44/1 540/43/1
f 541/27/1 542/35/1 543/36/1 544/31/1
f 545/35/1 546/37/1 547/38/1 548/36/1
f 549/37/1 550/39/1 551/40/1 552/38/1
f 553/28/1 554/29/1 555/2/1 556/1/1
f 557/29/1 558/30/1 559/5/1 560/2/1
f 561/30/1 562/31/1 563/7/1 564/5/1
f 565/12/1 566/11/1 567/35/1 568/27/1
f 569/11/1 570/14/1 571/37/1 572/35/1
f 573/14/1 574/16/1 575/39/1 576/37/1
f 577/1/1 578/2/1 579/3/1 580/4/1
f 581/2/1 582/5/1 583/6/1 584/3/1
f 585/5/1 586/7/1 587/8/1 588/6/1
f 589/12/1 590/11/1 591/35/1 592/27/1
f 593/11/1 594/14/1 595/37/1 596/35/1
f 597/14/1 598/16/1 599/39/1 600/37/1
f 601/9/1 602/10/1 603/11/1 604/12/1
f 605/10/1 606/13/1 607/14/1 608/11/1
f 609/13/1 610/15/1 611/16/1 612/14/1
f 613/28/1 614/29/1 615/2/1 616/1/1
f 617/29/1 618/30/1 619/5/1 620/2/1
f 621/30/1 622/31/1 623/7/1 624/5/1
f 625/9/1 626/10/1 627/11/1 628/12/1
f 629/10/1 630/13/1 631/14/1 632/11/1
f 633/13/1 634/15/1 635/16/1 636/14/1
f 637/4/1 638/3/1 639/41/1 640/42/1
f 641/3/1 642/6/1 643/43/1 644/41/1
f 645/6/1 646/8/1 647/44/1 648/43/1
f 649/17/1 650/18/1 651/10/1 652/9/1
f 653/18/1 654/19/1 655/13/1 656/10/1
f 657/19/1 658/20/1 659/15/1 660/13/1
f 661/17/1 662/18/1 663/10/1 664/9/1
f 665/18/1 666/19/1 667/13/1 668/10/1
f 669/19/1 670/20/1 671/15/1 672/13/1
f 673/1/1 674/2/1 675/3/1 676/4/1
f 677/2/1 678/5/1 679/6/1 680/3/1
f 681/5/1 682/7/1 683/8/1 684/6/1
f 685/28/1 686/29/1 687/2/1 688/1/1
f 689/29/1 690/30/1 691/5/1 692/2/1
f 693/30/1 694/31/1 695/7/1 696/5/1

