# Tiled2Unity generated file. Do not modify by hand.
# Wavefront file for 'StartingScreen_mesh_0002.obj'

# Vertices (Count = 464)
v -736 -96 0
v -768 -96 0
v -768 -64 0
v -736 -64 0
v -768 -96 0
v -800 -96 0
v -800 -64 0
v -768 -64 0
v -704 -128 0
v -736 -128 0
v -736 -96 0
v -704 -96 0
v -736 -128 0
v -768 -128 0
v -768 -96 0
v -736 -96 0
v -768 -128 0
v -800 -128 0
v -800 -96 0
v -768 -96 0
v -672 -160 0
v -704 -160 0
v -704 -128 0
v -672 -128 0
v -704 -160 0
v -736 -160 0
v -736 -128 0
v -704 -128 0
v -736 -160 0
v -768 -160 0
v -768 -128 0
v -736 -128 0
v -768 -160 0
v -800 -160 0
v -800 -128 0
v -768 -128 0
v -640 -192 0
v -672 -192 0
v -672 -160 0
v -640 -160 0
v -672 -192 0
v -704 -192 0
v -704 -160 0
v -672 -160 0
v -704 -192 0
v -736 -192 0
v -736 -160 0
v -704 -160 0
v -736 -192 0
v -768 -192 0
v -768 -160 0
v -736 -160 0
v -768 -192 0
v -800 -192 0
v -800 -160 0
v -768 -160 0
v -576 -224 0
v -608 -224 0
v -608 -192 0
v -576 -192 0
v -608 -224 0
v -640 -224 0
v -640 -192 0
v -608 -192 0
v -640 -224 0
v -672 -224 0
v -672 -192 0
v -640 -192 0
v -672 -224 0
v -704 -224 0
v -704 -192 0
v -672 -192 0
v -704 -224 0
v -736 -224 0
v -736 -192 0
v -704 -192 0
v -736 -224 0
v -768 -224 0
v -768 -192 0
v -736 -192 0
v -768 -224 0
v -800 -224 0
v -800 -192 0
v -768 -192 0
v -544 -256 0
v -576 -256 0
v -576 -224 0
v -544 -224 0
v -576 -256 0
v -608 -256 0
v -608 -224 0
v -576 -224 0
v -608 -256 0
v -640 -256 0
v -640 -224 0
v -608 -224 0
v -640 -256 0
v -672 -256 0
v -672 -224 0
v -640 -224 0
v -672 -256 0
v -704 -256 0
v -704 -224 0
v -672 -224 0
v -704 -256 0
v -736 -256 0
v -736 -224 0
v -704 -224 0
v -736 -256 0
v -768 -256 0
v -768 -224 0
v -736 -224 0
v -352 -288 0
v -384 -288 0
v -384 -256 0
v -352 -256 0
v -384 -288 0
v -416 -288 0
v -416 -256 0
v -384 -256 0
v -416 -288 0
v -448 -288 0
v -448 -256 0
v -416 -256 0
v -448 -288 0
v -480 -288 0
v -480 -256 0
v -448 -256 0
v -480 -288 0
v -512 -288 0
v -512 -256 0
v -480 -256 0
v -512 -288 0
v -544 -288 0
v -544 -256 0
v -512 -256 0
v -544 -288 0
v -576 -288 0
v -576 -256 0
v -544 -256 0
v -576 -288 0
v -608 -288 0
v -608 -256 0
v -576 -256 0
v -608 -288 0
v -640 -288 0
v -640 -256 0
v -608 -256 0
v -640 -288 0
v -672 -288 0
v -672 -256 0
v -640 -256 0
v -672 -288 0
v -704 -288 0
v -704 -256 0
v -672 -256 0
v -704 -288 0
v -736 -288 0
v -736 -256 0
v -704 -256 0
v -320 -320 0
v -352 -320 0
v -352 -288 0
v -320 -288 0
v -352 -320 0
v -384 -320 0
v -384 -288 0
v -352 -288 0
v -384 -320 0
v -416 -320 0
v -416 -288 0
v -384 -288 0
v -416 -320 0
v -448 -320 0
v -448 -288 0
v -416 -288 0
v -448 -320 0
v -480 -320 0
v -480 -288 0
v -448 -288 0
v -480 -320 0
v -512 -320 0
v -512 -288 0
v -480 -288 0
v -512 -320 0
v -544 -320 0
v -544 -288 0
v -512 -288 0
v -544 -320 0
v -576 -320 0
v -576 -288 0
v -544 -288 0
v -576 -320 0
v -608 -320 0
v -608 -288 0
v -576 -288 0
v -608 -320 0
v -640 -320 0
v -640 -288 0
v -608 -288 0
v -640 -320 0
v -672 -320 0
v -672 -288 0
v -640 -288 0
v -256 -352 0
v -288 -352 0
v -288 -320 0
v -256 -320 0
v -288 -352 0
v -320 -352 0
v -320 -320 0
v -288 -320 0
v -320 -352 0
v -352 -352 0
v -352 -320 0
v -320 -320 0
v -352 -352 0
v -384 -352 0
v -384 -320 0
v -352 -320 0
v -384 -352 0
v -416 -352 0
v -416 -320 0
v -384 -320 0
v -416 -352 0
v -448 -352 0
v -448 -320 0
v -416 -320 0
v -448 -352 0
v -480 -352 0
v -480 -320 0
v -448 -320 0
v -480 -352 0
v -512 -352 0
v -512 -320 0
v -480 -320 0
v -512 -352 0
v -544 -352 0
v -544 -320 0
v -512 -320 0
v -544 -352 0
v -576 -352 0
v -576 -320 0
v -544 -320 0
v -576 -352 0
v -608 -352 0
v -608 -320 0
v -576 -320 0
v -608 -352 0
v -640 -352 0
v -640 -320 0
v -608 -320 0
v -192 -384 0
v -224 -384 0
v -224 -352 0
v -192 -352 0
v -224 -384 0
v -256 -384 0
v -256 -352 0
v -224 -352 0
v -256 -384 0
v -288 -384 0
v -288 -352 0
v -256 -352 0
v -288 -384 0
v -320 -384 0
v -320 -352 0
v -288 -352 0
v -320 -384 0
v -352 -384 0
v -352 -352 0
v -320 -352 0
v -352 -384 0
v -384 -384 0
v -384 -352 0
v -352 -352 0
v -384 -384 0
v -416 -384 0
v -416 -352 0
v -384 -352 0
v -416 -384 0
v -448 -384 0
v -448 -352 0
v -416 -352 0
v -448 -384 0
v -480 -384 0
v -480 -352 0
v -448 -352 0
v -480 -384 0
v -512 -384 0
v -512 -352 0
v -480 -352 0
v -512 -384 0
v -544 -384 0
v -544 -352 0
v -512 -352 0
v -128 -416 0
v -160 -416 0
v -160 -384 0
v -128 -384 0
v -160 -416 0
v -192 -416 0
v -192 -384 0
v -160 -384 0
v -192 -416 0
v -224 -416 0
v -224 -384 0
v -192 -384 0
v -224 -416 0
v -256 -416 0
v -256 -384 0
v -224 -384 0
v -256 -416 0
v -288 -416 0
v -288 -384 0
v -256 -384 0
v -288 -416 0
v -320 -416 0
v -320 -384 0
v -288 -384 0
v -320 -416 0
v -352 -416 0
v -352 -384 0
v -320 -384 0
v -352 -416 0
v -384 -416 0
v -384 -384 0
v -352 -384 0
v -384 -416 0
v -416 -416 0
v -416 -384 0
v -384 -384 0
v -128 -448 0
v -160 -448 0
v -160 -416 0
v -128 -416 0
v -160 -448 0
v -192 -448 0
v -192 -416 0
v -160 -416 0
v -192 -448 0
v -224 -448 0
v -224 -416 0
v -192 -416 0
v -224 -448 0
v -256 -448 0
v -256 -416 0
v -224 -416 0
v -256 -448 0
v -288 -448 0
v -288 -416 0
v -256 -416 0
v -288 -448 0
v -320 -448 0
v -320 -416 0
v -288 -416 0
v -320 -448 0
v -352 -448 0
v -352 -416 0
v -320 -416 0
v -64 -480 0
v -96 -480 0
v -96 -448 0
v -64 -448 0
v -96 -480 0
v -128 -480 0
v -128 -448 0
v -96 -448 0
v -128 -480 0
v -160 -480 0
v -160 -448 0
v -128 -448 0
v -160 -480 0
v -192 -480 0
v -192 -448 0
v -160 -448 0
v -192 -480 0
v -224 -480 0
v -224 -448 0
v -192 -448 0
v -224 -480 0
v -256 -480 0
v -256 -448 0
v -224 -448 0
v -256 -480 0
v -288 -480 0
v -288 -448 0
v -256 -448 0
v 0 -512 0
v -32 -512 0
v -32 -480 0
v 0 -480 0
v -32 -512 0
v -64 -512 0
v -64 -480 0
v -32 -480 0
v -64 -512 0
v -96 -512 0
v -96 -480 0
v -64 -480 0
v -96 -512 0
v -128 -512 0
v -128 -480 0
v -96 -480 0
v -128 -512 0
v -160 -512 0
v -160 -480 0
v -128 -480 0
v -160 -512 0
v -192 -512 0
v -192 -480 0
v -160 -480 0
v -192 -512 0
v -224 -512 0
v -224 -480 0
v -192 -480 0
v 0 -544 0
v -32 -544 0
v -32 -512 0
v 0 -512 0
v -32 -544 0
v -64 -544 0
v -64 -512 0
v -32 -512 0
v -64 -544 0
v -96 -544 0
v -96 -512 0
v -64 -512 0
v -96 -544 0
v -128 -544 0
v -128 -512 0
v -96 -512 0
v -128 -544 0
v -160 -544 0
v -160 -512 0
v -128 -512 0
v -160 -544 0
v -192 -544 0
v -192 -512 0
v -160 -512 0
v -192 -544 0
v -224 -544 0
v -224 -512 0
v -192 -512 0
v 0 -576 0
v -32 -576 0
v -32 -544 0
v 0 -544 0
v -32 -576 0
v -64 -576 0
v -64 -544 0
v -32 -544 0
v -64 -576 0
v -96 -576 0
v -96 -544 0
v -64 -544 0
v -96 -576 0
v -128 -576 0
v -128 -544 0
v -96 -544 0
v -128 -576 0
v -160 -576 0
v -160 -544 0
v -128 -544 0

# Texture cooridinates (Count = 20)
vt 0 0.5
vt 0.3333333 0.5
vt 0.3333333 0.6666666
vt 0 0.6666666
vt 0.6666667 0.5
vt 0.6666667 0.6666666
vt 1 0.6666666
vt 1 0.8333333
vt 0.6666667 0.8333333
vt 0.3333333 0.3333333
vt 0.6666667 0.3333333
vt 0.3333333 0.8333333
vt 0.6666667 1
vt 0.3333333 1
vt 0.6666667 0.1666667
vt 1 0.1666667
vt 1 0.3333333
vt 0.3333333 0.1666667
vt 0 0.3333333
vt 1 0.5

# Normal
vn 0 0 -1

# Mesh description
g StartingScreen_mesh_0002

# Faces
f 1/1/1 2/2/1 3/3/1 4/4/1
f 5/2/1 6/5/1 7/6/1 8/3/1
f 9/1/1 10/2/1 11/3/1 12/4/1
f 13/6/1 14/7/1 15/8/1 16/9/1
f 17/10/1 18/11/1 19/5/1 20/2/1
f 21/1/1 22/2/1 23/3/1 24/4/1
f 25/6/1 26/7/1 27/8/1 28/9/1
f 29/10/1 30/11/1 31/5/1 32/2/1
f 33/10/1 34/11/1 35/5/1 36/2/1
f 37/1/1 38/2/1 39/3/1 40/4/1
f 41/6/1 42/7/1 43/8/1 44/9/1
f 45/10/1 46/11/1 47/5/1 48/2/1
f 49/10/1 50/11/1 51/5/1 52/2/1
f 53/12/1 54/9/1 55/13/1 56/14/1
f 57/1/1 58/2/1 59/3/1 60/4/1
f 61/2/1 62/5/1 63/6/1 64/3/1
f 65/6/1 66/7/1 67/8/1 68/9/1
f 69/10/1 70/11/1 71/5/1 72/2/1
f 73/10/1 74/11/1 75/5/1 76/2/1
f 77/12/1 78/9/1 79/13/1 80/14/1
f 81/15/1 82/16/1 83/17/1 84/11/1
f 85/1/1 86/2/1 87/3/1 88/4/1
f 89/6/1 90/7/1 91/8/1 92/9/1
f 93/10/1 94/11/1 95/5/1 96/2/1
f 97/10/1 98/11/1 99/5/1 100/2/1
f 101/10/1 102/11/1 103/5/1 104/2/1
f 105/12/1 106/9/1 107/13/1 108/14/1
f 109/15/1 110/16/1 111/17/1 112/11/1
f 113/1/1 114/2/1 115/3/1 116/4/1
f 117/2/1 118/5/1 119/6/1 120/3/1
f 121/2/1 122/5/1 123/6/1 124/3/1
f 125/2/1 126/5/1 127/6/1 128/3/1
f 129/2/1 130/5/1 131/6/1 132/3/1
f 133/2/1 134/5/1 135/6/1 136/3/1
f 137/6/1 138/7/1 139/8/1 140/9/1
f 141/10/1 142/11/1 143/5/1 144/2/1
f 145/10/1 146/11/1 147/5/1 148/2/1
f 149/12/1 150/9/1 151/13/1 152/14/1
f 153/18/1 154/15/1 155/11/1 156/10/1
f 157/15/1 158/16/1 159/17/1 160/11/1
f 161/1/1 162/2/1 163/3/1 164/4/1
f 165/6/1 166/7/1 167/8/1 168/9/1
f 169/10/1 170/11/1 171/5/1 172/2/1
f 173/10/1 174/11/1 175/5/1 176/2/1
f 177/10/1 178/11/1 179/5/1 180/2/1
f 181/10/1 182/11/1 183/5/1 184/2/1
f 185/10/1 186/11/1 187/5/1 188/2/1
f 189/10/1 190/11/1 191/5/1 192/2/1
f 193/10/1 194/11/1 195/5/1 196/2/1
f 197/12/1 198/9/1 199/13/1 200/14/1
f 201/15/1 202/16/1 203/17/1 204/11/1
f 205/1/1 206/2/1 207/3/1 208/4/1
f 209/2/1 210/5/1 211/6/1 212/3/1
f 213/6/1 214/7/1 215/8/1 216/9/1
f 217/10/1 218/11/1 219/5/1 220/2/1
f 221/10/1 222/11/1 223/5/1 224/2/1
f 225/10/1 226/11/1 227/5/1 228/2/1
f 229/10/1 230/11/1 231/5/1 232/2/1
f 233/10/1 234/11/1 235/5/1 236/2/1
f 237/12/1 238/9/1 239/13/1 240/14/1
f 241/18/1 242/15/1 243/11/1 244/10/1
f 245/18/1 246/15/1 247/11/1 248/10/1
f 249/15/1 250/16/1 251/17/1 252/11/1
f 253/1/1 254/2/1 255/3/1 256/4/1
f 257/2/1 258/5/1 259/6/1 260/3/1
f 261/6/1 262/7/1 263/8/1 264/9/1
f 265/10/1 266/11/1 267/5/1 268/2/1
f 269/10/1 270/11/1 271/5/1 272/2/1
f 273/10/1 274/11/1 275/5/1 276/2/1
f 277/12/1 278/9/1 279/13/1 280/14/1
f 281/18/1 282/15/1 283/11/1 284/10/1
f 285/18/1 286/15/1 287/11/1 288/10/1
f 289/18/1 290/15/1 291/11/1 292/10/1
f 293/15/1 294/16/1 295/17/1 296/11/1
f 297/1/1 298/2/1 299/3/1 300/4/1
f 301/2/1 302/5/1 303/6/1 304/3/1
f 305/6/1 306/7/1 307/8/1 308/9/1
f 309/10/1 310/11/1 311/5/1 312/2/1
f 313/10/1 314/11/1 315/5/1 316/2/1
f 317/10/1 318/11/1 319/5/1 320/2/1
f 321/12/1 322/9/1 323/13/1 324/14/1
f 325/18/1 326/15/1 327/11/1 328/10/1
f 329/15/1 330/16/1 331/17/1 332/11/1
f 333/19/1 334/10/1 335/2/1 336/1/1
f 337/10/1 338/11/1 339/5/1 340/2/1
f 341/10/1 342/11/1 343/5/1 344/2/1
f 345/10/1 346/11/1 347/5/1 348/2/1
f 349/12/1 350/9/1 351/13/1 352/14/1
f 353/18/1 354/15/1 355/11/1 356/10/1
f 357/15/1 358/16/1 359/17/1 360/11/1
f 361/1/1 362/2/1 363/3/1 364/4/1
f 365/2/1 366/5/1 367/6/1 368/3/1
f 369/6/1 370/7/1 371/8/1 372/9/1
f 373/10/1 374/11/1 375/5/1 376/2/1
f 377/12/1 378/9/1 379/13/1 380/14/1
f 381/18/1 382/15/1 383/11/1 384/10/1
f 385/15/1 386/16/1 387/17/1 388/11/1
f 389/2/1 390/5/1 391/6/1 392/3/1
f 393/2/1 394/5/1 395/6/1 396/3/1
f 397/6/1 398/7/1 399/8/1 400/9/1
f 401/10/1 402/11/1 403/5/1 404/2/1
f 405/10/1 406/11/1 407/5/1 408/2/1
f 409/10/1 410/11/1 411/5/1 412/2/1
f 413/11/1 414/17/1 415/20/1 416/5/1
f 417/10/1 418/11/1 419/5/1 420/2/1
f 421/10/1 422/11/1 423/5/1 424/2/1
f 425/10/1 426/11/1 427/5/1 428/2/1
f 429/10/1 430/11/1 431/5/1 432/2/1
f 433/12/1 434/9/1 435/13/1 436/14/1
f 437/18/1 438/15/1 439/11/1 440/10/1
f 441/15/1 442/16/1 443/17/1 444/11/1
f 445/18/1 446/15/1 447/11/1 448/10/1
f 449/18/1 450/15/1 451/11/1 452/10/1
f 453/18/1 454/15/1 455/11/1 456/10/1
f 457/18/1 458/15/1 459/11/1 460/10/1
f 461/15/1 462/16/1 463/17/1 464/11/1

