# Tiled2Unity generated file. Do not modify by hand.
# Wavefront file for 'StartingScreen_mesh_0004.obj'

# Vertices (Count = 104)
v -32 -96 0
v -64 -96 0
v -64 -64 0
v -32 -64 0
v -256 -96 0
v -288 -96 0
v -288 -64 0
v -256 -64 0
v -64 -128 0
v -96 -128 0
v -96 -96 0
v -64 -96 0
v -640 -128 0
v -672 -128 0
v -672 -96 0
v -640 -96 0
v -32 -160 0
v -64 -160 0
v -64 -128 0
v -32 -128 0
v -480 -256 0
v -512 -256 0
v -512 -224 0
v -480 -224 0
v -512 -256 0
v -544 -256 0
v -544 -224 0
v -512 -224 0
v -480 -288 0
v -512 -288 0
v -512 -256 0
v -480 -256 0
v -192 -352 0
v -224 -352 0
v -224 -320 0
v -192 -320 0
v -224 -352 0
v -256 -352 0
v -256 -320 0
v -224 -320 0
v -160 -384 0
v -192 -384 0
v -192 -352 0
v -160 -352 0
v -416 -384 0
v -448 -384 0
v -448 -352 0
v -416 -352 0
v -416 -416 0
v -448 -416 0
v -448 -384 0
v -416 -384 0
v -704 -416 0
v -736 -416 0
v -736 -384 0
v -704 -384 0
v -96 -448 0
v -128 -448 0
v -128 -416 0
v -96 -416 0
v -288 -448 0
v -320 -448 0
v -320 -416 0
v -288 -416 0
v -320 -448 0
v -352 -448 0
v -352 -416 0
v -320 -416 0
v -352 -448 0
v -384 -448 0
v -384 -416 0
v -352 -416 0
v -224 -480 0
v -256 -480 0
v -256 -448 0
v -224 -448 0
v -608 -480 0
v -640 -480 0
v -640 -448 0
v -608 -448 0
v -576 -512 0
v -608 -512 0
v -608 -480 0
v -576 -480 0
v -416 -544 0
v -448 -544 0
v -448 -512 0
v -416 -512 0
v 0 -608 0
v -32 -608 0
v -32 -576 0
v 0 -576 0
v -256 -672 0
v -288 -672 0
v -288 -640 0
v -256 -640 0
v -704 -672 0
v -736 -672 0
v -736 -640 0
v -704 -640 0
v -32 -704 0
v -64 -704 0
v -64 -672 0
v -32 -672 0

# Texture cooridinates (Count = 6)
vt 0 0
vt 0.5 0
vt 0.5 1
vt 0 1
vt 1 0
vt 1 1

# Normal
vn 0 0 -1

# Mesh description
g StartingScreen_mesh_0004

# Faces
f 1/1/1 2/2/1 3/3/1 4/4/1
f 5/1/1 6/2/1 7/3/1 8/4/1
f 9/1/1 10/2/1 11/3/1 12/4/1
f 13/2/1 14/5/1 15/6/1 16/3/1
f 17/2/1 18/5/1 19/6/1 20/3/1
f 21/2/1 22/5/1 23/6/1 24/3/1
f 25/2/1 26/5/1 27/6/1 28/3/1
f 29/1/1 30/2/1 31/3/1 32/4/1
f 33/1/1 34/2/1 35/3/1 36/4/1
f 37/2/1 38/5/1 39/6/1 40/3/1
f 41/1/1 42/2/1 43/3/1 44/4/1
f 45/1/1 46/2/1 47/3/1 48/4/1
f 49/1/1 50/2/1 51/3/1 52/4/1
f 53/1/1 54/2/1 55/3/1 56/4/1
f 57/2/1 58/5/1 59/6/1 60/3/1
f 61/1/1 62/2/1 63/3/1 64/4/1
f 65/1/1 66/2/1 67/3/1 68/4/1
f 69/2/1 70/5/1 71/6/1 72/3/1
f 73/1/1 74/2/1 75/3/1 76/4/1
f 77/1/1 78/2/1 79/3/1 80/4/1
f 81/1/1 82/2/1 83/3/1 84/4/1
f 85/1/1 86/2/1 87/3/1 88/4/1
f 89/1/1 90/2/1 91/3/1 92/4/1
f 93/2/1 94/5/1 95/6/1 96/3/1
f 97/1/1 98/2/1 99/3/1 100/4/1
f 101/1/1 102/2/1 103/3/1 104/4/1

